<svg width="65" height="65" viewBox="0 0 65 65" fill="none" xmlns="http://www.w3.org/2000/svg">
<circle cx="32.5" cy="32.2676" r="32" fill="#EF6D58"/>
<path fill-rule="evenodd" clip-rule="evenodd" d="M34.0128 44.2234C39.9476 43.7109 44.4991 38.8528 44.5 33.0295C44.4992 27.9544 41.0202 23.5089 36.0089 22.1798C36.1419 21.7272 36.0495 21.24 35.7595 20.864C35.4696 20.4881 35.0157 20.2672 34.534 20.2676H31.4675C30.9858 20.2672 30.5319 20.4881 30.2419 20.864C29.9519 21.24 29.8596 21.7272 29.9925 22.1798C24.2421 23.7031 20.6344 29.2671 21.6799 35.0001C22.7255 40.733 28.0779 44.7359 34.0128 44.2234ZM38.9618 27.1793L38.965 27.1775L38.962 27.179L38.9618 27.1793ZM38.9618 27.1793L31.3755 31.4155L27.0365 38.835L34.626 34.597L38.9618 27.1793Z" fill="#FFFAFB"/>
</svg>
