<svg width="391" height="266" viewBox="0 0 391 266" fill="none" xmlns="http://www.w3.org/2000/svg">
<g filter="url(#filter0_b_57_709)">
<path d="M0 55.0252C0 36.169 0 26.7409 5.85786 20.8831C11.7157 15.0252 21.1438 15.0252 40 15.0252H97.5693H128.985C140.422 15.0252 151.718 12.4934 162.062 7.61156V7.61156C183.005 -2.27331 207.272 -2.27331 228.216 7.61156V7.61156C238.559 12.4934 249.855 15.0252 261.293 15.0252H292.708H350.277C369.133 15.0252 378.562 15.0252 384.419 20.8831C390.277 26.7409 390.277 36.169 390.277 55.0252V226C390.277 244.856 390.277 254.284 384.419 260.142C378.562 266 369.133 266 350.277 266H40C21.1438 266 11.7157 266 5.85786 260.142C0 254.284 0 244.856 0 226L0 55.0252Z" fill="#FFEDED" fill-opacity="0.37"/>
<path d="M390.027 55.0252V226C390.027 235.435 390.027 242.486 389.297 247.912C388.569 253.331 387.117 257.091 384.243 259.965C381.368 262.84 377.608 264.292 372.189 265.02C366.764 265.749 359.712 265.75 350.277 265.75H40C30.5648 265.75 23.5136 265.749 18.0879 265.02C12.6693 264.292 8.90938 262.84 6.03464 259.965C3.1599 257.091 1.70851 253.331 0.980004 247.912C0.250531 242.486 0.25 235.435 0.25 226V55.0252C0.25 45.5901 0.250531 38.5388 0.980004 33.1131C1.70851 27.6945 3.1599 23.9346 6.03464 21.0599C8.90938 18.1851 12.6693 16.7337 18.0879 16.0052C23.5136 15.2757 30.5648 15.2752 40 15.2752H97.5693H128.985C140.459 15.2752 151.792 12.7353 162.168 7.83764C183.044 -2.01534 207.233 -2.01534 228.109 7.83764C238.486 12.7353 249.818 15.2752 261.293 15.2752H292.708H350.277C359.712 15.2752 366.764 15.2757 372.189 16.0052C377.608 16.7337 381.368 18.1851 384.243 21.0599C387.117 23.9346 388.569 27.6945 389.297 33.1131C390.027 38.5388 390.027 45.5901 390.027 55.0252Z" stroke="url(#paint0_linear_57_709)" stroke-width="0.5"/>
</g>
<defs>
<filter id="filter0_b_57_709" x="-55" y="-54.8018" width="500.277" height="375.802" filterUnits="userSpaceOnUse" color-interpolation-filters="sRGB">
<feFlood flood-opacity="0" result="BackgroundImageFix"/>
<feGaussianBlur in="BackgroundImageFix" stdDeviation="27.5"/>
<feComposite in2="SourceAlpha" operator="in" result="effect1_backgroundBlur_57_709"/>
<feBlend mode="normal" in="SourceGraphic" in2="effect1_backgroundBlur_57_709" result="shape"/>
</filter>
<linearGradient id="paint0_linear_57_709" x1="4.25274e-05" y1="6.96624" x2="390.277" y2="105.399" gradientUnits="userSpaceOnUse">
<stop stop-color="white"/>
<stop offset="0.536458" stop-opacity="0"/>
<stop offset="1" stop-color="white"/>
</linearGradient>
</defs>
</svg>
