<svg width="81" height="81" viewBox="0 0 81 81" fill="none" xmlns="http://www.w3.org/2000/svg">
<circle cx="40.5" cy="40.2676" r="40" fill="#003F7D"/>
<path fill-rule="evenodd" clip-rule="evenodd" d="M40.5 24.2676C40.8784 24.2676 41.2244 24.4813 41.394 24.8199L42.118 26.2689H51.5C53.1569 26.2689 54.5 27.613 54.5 29.271V44.2815H26.5V29.271C26.5 27.613 27.8431 26.2689 29.5 26.2689H38.88L39.606 24.8199C39.7756 24.4813 40.1216 24.2676 40.5 24.2676ZM25.5 46.2829C24.9477 46.2829 24.5 46.7309 24.5 47.2836C24.5 47.8362 24.9477 48.2843 25.5 48.2843H31.22L29.53 55.047C29.4107 55.5774 29.7364 56.106 30.2635 56.2376C30.7906 56.3692 31.3263 56.0556 31.47 55.5313L32.28 52.287H48.72L49.53 55.5313C49.6737 56.0556 50.2094 56.3692 50.7365 56.2376C51.2636 56.106 51.5893 55.5774 51.47 55.047L49.78 48.2843H55.5C56.0523 48.2843 56.5 47.8362 56.5 47.2836C56.5 46.7309 56.0523 46.2829 55.5 46.2829H25.5ZM32.78 50.2857L33.28 48.2843H47.72L48.22 50.2857H32.78Z" fill="#FFFAFB"/>
</svg>
