<svg width="81" height="81" viewBox="0 0 81 81" fill="none" xmlns="http://www.w3.org/2000/svg">
<circle cx="40.5" cy="40.2676" r="40" fill="#003F7D"/>
<path fill-rule="evenodd" clip-rule="evenodd" d="M37.5 26.2676C35.8431 26.2676 34.5 27.6107 34.5 29.2676V30.2676H27.5C25.8431 30.2676 24.5 31.6107 24.5 33.2676V36.0356L39.728 40.0956C40.2339 40.2303 40.7661 40.2303 41.272 40.0956L56.5 36.0356V33.2676C56.5 31.6107 55.1569 30.2676 53.5 30.2676H46.5V29.2676C46.5 27.6107 45.1569 26.2676 43.5 26.2676H37.5ZM37.5 28.2676H43.5C44.0523 28.2676 44.5 28.7153 44.5 29.2676V30.2676H36.5V29.2676C36.5 28.7153 36.9477 28.2676 37.5 28.2676ZM27.5 52.2676C25.8431 52.2676 24.5 50.9244 24.5 49.2676V37.9676L40.242 42.1616C40.411 42.2067 40.589 42.2067 40.758 42.1616L56.5 37.9676V49.2676C56.5 50.9244 55.1569 52.2676 53.5 52.2676H27.5Z" fill="#FFFAFB"/>
</svg>
