<svg id="epbrqPKyN5C1" xmlns="http://www.w3.org/2000/svg" xmlns:xlink="http://www.w3.org/1999/xlink" viewBox="0 0 10000.75 3849.2" shape-rendering="geometricPrecision" text-rendering="geometricPrecision"><g transform="matrix(.638823 0 0 0.638823 469.242706 694.470703)"><path d="M2627.76,3156.97c-127.22,214.35-306.43,387.34-516.31,506.83-209.98,119.55-449.95,185.4-698.58,185.4-390.13,0-743.35-158.15-999.04-413.84-255.68-255.69-413.84-608.91-413.84-999.04s158.15-743.35,413.84-999.04s608.91-413.84,999.04-413.84c255.14,0,501.07,69.49,714.9,195.02c124.81,73.28,459.34,333.77,527.28,555.09c30.76,100.21,4.21,154.49-64.55,227.69-346.05,368.48-760.04,739.24-1125.64,1096.02-244.57-233.55-489.15-467.11-733.72-700.66-177.72-189.54,53.44-426.17,255.94-266.07l472.47,453.09l789.85-770.81c-84.04-112.85-189.19-206.35-308.19-276.22-156.75-92.03-338.46-142.97-528.36-142.97-287.95,0-548.63,116.71-737.31,305.39s-305.38,449.36-305.38,737.31s116.7,548.63,305.38,737.31s449.36,305.38,737.31,305.38c184.73,0,362.09-48.39,516.38-136.23c154.39-87.9,286.41-215.48,380.38-373.8c148.76-186.58,417.7-19.26,318.13,187.99h.02Z" transform="translate(61.471943 76.657051)" clip-rule="evenodd" fill="#d59400"/><ellipse rx="425" ry="425" transform="translate(1381.852905 577.60907)" fill="#d59400" stroke-width="0"/><text dx="0" dy="0" font-family="&quot;Harabara mais&quot;" font-size="346.24875" font-weight="700" transform="matrix(7.538053 0 0 7.538053 3207.105924 3282.413556)" fill="#fff" stroke-width="0"><tspan y="0" font-weight="700" stroke-width="0"><![CDATA[
eLearning 
]]></tspan></text></g></svg>
