<svg width="65" height="65" viewBox="0 0 65 65" fill="none" xmlns="http://www.w3.org/2000/svg">
<circle cx="32.5" cy="32.2676" r="32" fill="#EF6D58"/>
<path fill-rule="evenodd" clip-rule="evenodd" d="M23.5 23.2676C22.1002 23.2675 20.8864 24.2354 20.575 25.6001L32.5 32.8886L44.425 25.6001C44.1136 24.2354 42.8998 23.2675 41.5 23.2676H23.5ZM20.5 37.9691V27.3131L29.2045 32.6321L20.5 37.9691ZM30.6415 33.5126L20.7865 39.5531C21.2835 40.6011 22.3401 41.2687 23.5 41.2676H41.5C42.6597 41.2678 43.7157 40.5997 44.212 39.5516L34.357 33.5111L32.5 34.6466L30.6415 33.5111V33.5126ZM44.5 37.9691L35.7955 32.6336V32.6321L44.5 27.3131V37.9691Z" fill="#FFFAFB"/>
</svg>
