<svg width="81" height="81" viewBox="0 0 81 81" fill="none" xmlns="http://www.w3.org/2000/svg">
<circle cx="40.5" cy="40.2676" r="40" fill="#003F7D"/>
<path fill-rule="evenodd" clip-rule="evenodd" d="M25.5 24.2676C24.9477 24.2676 24.5 24.7153 24.5 25.2676V50.2576V50.2676V50.3556C24.5213 51.9166 25.1522 53.4075 26.258 54.5096C27.3817 55.6367 28.9084 56.2694 30.5 56.2676H55.5C56.0523 56.2676 56.5 55.8199 56.5 55.2676V45.2676C56.5 44.7153 56.0523 44.2676 55.5 44.2676H45.022L53.278 36.0476C53.4661 35.86 53.5718 35.6052 53.5718 35.3396C53.5718 35.0739 53.4661 34.8192 53.278 34.6316L46.208 27.5596C45.8175 27.1692 45.1845 27.1692 44.794 27.5596L36.5 35.8216V25.2676C36.5 24.7153 36.0523 24.2676 35.5 24.2676H25.5ZM51.156 35.3356L36.5 49.9356V38.6436L45.498 29.6796L51.156 35.3356ZM33.5 50.2676C33.5 48.6107 32.1569 47.2676 30.5 47.2676C28.8431 47.2676 27.5 48.6107 27.5 50.2676C27.5 51.9244 28.8431 53.2676 30.5 53.2676C32.1569 53.2676 33.5 51.9244 33.5 50.2676ZM43.016 46.2676H54.5V54.2676H34.986L43.016 46.2676Z" fill="#FFFAFB"/>
</svg>
