<svg width="48" height="49" viewBox="0 0 48 49" fill="none" xmlns="http://www.w3.org/2000/svg">
<circle cx="24" cy="24.2676" r="24" fill="#EF6D58"/>
<path fill-rule="evenodd" clip-rule="evenodd" d="M24 16.2676C21.8267 16.2676 21.556 16.2769 20.7013 16.3169C17.7947 16.4502 16.1813 18.0622 16.048 20.9689C16.0093 21.8236 16 22.0956 16 24.2676C16 26.4409 16.0093 26.7129 16.048 27.5662C16.1813 30.4716 17.7947 32.0862 20.7013 32.2196C21.556 32.2582 21.8267 32.2676 24 32.2676C26.1733 32.2676 26.4453 32.2582 27.3 32.2196C30.2013 32.0862 31.8213 30.4742 31.952 27.5662C31.9907 26.7129 32 26.4409 32 24.2676C32 22.0956 31.9907 21.8236 31.952 20.9689C31.8213 18.0662 30.2067 16.4489 27.3 16.3169C26.4453 16.2769 26.1733 16.2676 24 16.2676ZM24 17.7102C26.136 17.7102 26.3893 17.7182 27.2333 17.7569C29.4027 17.8556 30.4133 18.8836 30.5133 21.0356C30.5507 21.8796 30.5587 22.1316 30.5587 24.2676C30.5587 26.4036 30.5507 26.6569 30.5133 27.4996C30.4133 29.6502 29.404 30.6809 27.2333 30.7796C26.3893 30.8169 26.1373 30.8262 24 30.8262C21.864 30.8262 21.6107 30.8182 20.768 30.7796C18.5947 30.6796 17.588 29.6476 17.488 27.4996C17.4507 26.6569 17.4413 26.4036 17.4413 24.2676C17.4413 22.1316 17.4507 21.8782 17.488 21.0356C17.5867 18.8822 18.5973 17.8542 20.768 17.7556C21.6107 17.7169 21.864 17.7102 24 17.7102ZM19.892 24.2676C19.892 21.9982 21.732 20.1596 24 20.1596C26.268 20.1596 28.108 21.9996 28.108 24.2676C28.108 26.5369 26.268 28.3756 24 28.3756C21.732 28.3756 19.892 26.5369 19.892 24.2676ZM24 26.9342C22.5267 26.9342 21.3333 25.7409 21.3333 24.2676C21.3333 22.7956 22.5267 21.6009 24 21.6009C25.472 21.6009 26.668 22.7942 26.668 24.2676C26.668 25.7409 25.472 26.9342 24 26.9342ZM27.3093 19.9982C27.3093 19.4676 27.74 19.0382 28.2693 19.0382C28.8013 19.0382 29.2307 19.4676 29.2307 19.9982C29.2307 20.5289 28.8 20.9582 28.2693 20.9582C27.7387 20.9582 27.3093 20.5276 27.3093 19.9982Z" fill="#FFFAFB"/>
</svg>
