<svg width="81" height="81" viewBox="0 0 81 81" fill="none" xmlns="http://www.w3.org/2000/svg">
<circle cx="40.5" cy="40.2676" r="40" fill="#003F7D"/>
<path fill-rule="evenodd" clip-rule="evenodd" d="M42.3639 25.7225C41.8759 23.7826 39.1221 23.7826 38.6361 25.7225L38.4941 26.2945C38.3249 26.9714 37.8018 27.5032 37.1278 27.6835C36.4538 27.8639 35.735 27.6644 35.2503 27.1624L34.8404 26.7404C33.4504 25.3025 31.0646 26.6824 31.6146 28.6023L31.7765 29.1703C31.9674 29.8406 31.7801 30.5616 31.2871 31.0542C30.7941 31.5468 30.0728 31.7336 29.4027 31.5421L28.8347 31.3821C26.9128 30.8322 25.5349 33.218 26.9728 34.6079L27.3948 35.0179C27.8968 35.5025 28.0963 36.2213 27.916 36.8954C27.7356 37.5694 27.2038 38.0925 26.5269 38.2617L25.9549 38.4037C24.015 38.8917 24.015 41.6455 25.9549 42.1315L26.5269 42.2735C27.2038 42.4426 27.7356 42.9658 27.916 43.6398C28.0963 44.3138 27.8968 45.0326 27.3948 45.5173L26.9728 45.9272C25.5349 47.3171 26.9148 49.703 28.8347 49.153L29.4027 48.991C30.073 48.8002 30.7941 48.9875 31.2867 49.4805C31.7792 49.9735 31.966 50.6948 31.7745 51.3649L31.6146 51.9328C31.0646 53.8547 33.4504 55.2326 34.8404 53.7947L35.2503 53.3728C35.735 52.8708 36.4538 52.6713 37.1278 52.8516C37.8018 53.032 38.3249 53.5638 38.4941 54.2407L38.6361 54.8127C39.1241 56.7525 41.8779 56.7525 42.3639 54.8127L42.5059 54.2407C42.6751 53.5638 43.1982 53.032 43.8722 52.8516C44.5462 52.6713 45.265 52.8708 45.7497 53.3728L46.1596 53.7947C47.5496 55.2326 49.9354 53.8527 49.3854 51.9328L49.2235 51.3669C49.0316 50.6963 49.2186 49.9745 49.7117 49.4813C50.2049 48.9881 50.9268 48.8012 51.5973 48.993L52.1653 49.153C54.0872 49.703 55.4651 47.3171 54.0272 45.9272L53.6052 45.5173C53.1032 45.0326 52.9037 44.3138 53.084 43.6398C53.2644 42.9658 53.7962 42.4426 54.4731 42.2735L55.0451 42.1315C56.985 41.6435 56.985 38.8897 55.0451 38.4037L54.4731 38.2617C53.7962 38.0925 53.2644 37.5694 53.084 36.8954C52.9037 36.2213 53.1032 35.5025 53.6052 35.0179L54.0272 34.6079C55.4651 33.218 54.0852 30.8322 52.1653 31.3821L51.5993 31.5441C50.9287 31.7359 50.2069 31.549 49.7137 31.0558C49.2206 30.5627 49.0336 29.8408 49.2255 29.1703L49.3854 28.6023C49.9354 26.6804 47.5496 25.3025 46.1596 26.7404L45.7497 27.1624C45.265 27.6644 44.5462 27.8639 43.8722 27.6835C43.1982 27.5032 42.6751 26.9714 42.5059 26.2945L42.3639 25.7225ZM41 41.2675H50.4454C50.103 44.6784 48.0366 47.6759 44.9705 49.2091C41.9045 50.7423 38.2666 50.5973 35.3323 48.825L41 41.2675ZM50.4454 39.2676C50.103 35.8568 48.0366 32.8593 44.9705 31.3261C41.9045 29.7929 38.2666 29.9378 35.3323 31.7101L41 39.2696H50.4454V39.2676ZM30.5046 40.2676C30.5018 37.4712 31.6737 34.8023 33.7344 32.912L39.2501 40.2676L33.7344 47.6231C31.7485 45.7972 30.5046 43.1774 30.5046 40.2676Z" fill="#FFFAFB"/>
</svg>
