<svg width="65" height="65" viewBox="0 0 65 65" fill="none" xmlns="http://www.w3.org/2000/svg">
<circle cx="32.5" cy="32.2676" r="32" fill="#EF6D58"/>
<path fill-rule="evenodd" clip-rule="evenodd" d="M23.3281 21.0329C23.859 20.5027 24.5919 20.2259 25.3407 20.2727C26.0895 20.3194 26.7822 20.6853 27.243 21.2774L29.9354 24.7365C30.4289 25.3711 30.6029 26.1976 30.4079 26.9776L29.5874 30.2628C29.5011 30.6089 29.6024 30.9749 29.8544 31.2273L33.5398 34.913C33.7925 35.1655 34.1592 35.2669 34.5058 35.18L37.7892 34.3595C38.5691 34.1645 39.3953 34.3387 40.0301 34.832L43.489 37.5231C44.7324 38.4907 44.8464 40.3283 43.7335 41.4398L42.1825 42.9909C41.0726 44.1009 39.4136 44.5884 37.8672 44.0439C33.9091 42.6511 30.3153 40.385 27.3525 37.4136C24.3815 34.451 22.1156 30.8575 20.7227 26.8996C20.1797 25.3546 20.6672 23.694 21.7772 22.5839L23.3281 21.0329Z" fill="#FFFAFB"/>
</svg>
