<svg width="17" height="17" viewBox="0 0 17 17" fill="none" xmlns="http://www.w3.org/2000/svg">
<circle cx="8.5" cy="8.26758" r="8" fill="#EF6D58"/>
<path fill-rule="evenodd" clip-rule="evenodd" d="M8.5 4.26758C7.94772 4.26758 7.5 4.71529 7.5 5.26758V7.26758H5.5C4.94772 7.26758 4.5 7.71529 4.5 8.26758C4.5 8.81986 4.94772 9.26758 5.5 9.26758H7.5V11.2676C7.5 11.8199 7.94772 12.2676 8.5 12.2676C9.05228 12.2676 9.5 11.8199 9.5 11.2676V9.26758H11.5C12.0523 9.26758 12.5 8.81986 12.5 8.26758C12.5 7.71529 12.0523 7.26758 11.5 7.26758H9.5V5.26758C9.5 4.71529 9.05228 4.26758 8.5 4.26758Z" fill="#FFFAFB"/>
</svg>
