<svg width="100" height="81" viewBox="0 0 100 81" fill="none" xmlns="http://www.w3.org/2000/svg">
<path fill-rule="evenodd" clip-rule="evenodd" d="M44.9664 45.2676C44.9964 45.4176 45.9507 58.5676 36.5177 68.8076C29.508 76.4126 18.9009 80.2676 4.99627 80.2676H0V66.1676L4.012 65.3676C10.9118 63.9876 15.6933 61.2526 18.2314 57.2476C19.5312 55.1429 20.2692 52.7395 20.3748 50.2676H4.99627C2.23691 50.2676 0 48.029 0 45.2676V10.2676C0 4.75258 4.48165 0.267578 9.99253 0.267578H39.9701C42.7295 0.267578 44.9664 2.50615 44.9664 5.26758V45.2676ZM99.9603 45.2676C99.9903 45.4176 100.94 58.5676 91.5116 68.8076C84.5019 76.4126 73.8948 80.2676 59.9902 80.2676H54.9939V66.1676L59.0059 65.3676C65.9058 63.9876 70.6872 61.2526 73.2253 57.2476C74.5251 55.1429 75.2631 52.7395 75.3687 50.2676H59.9902C57.2308 50.2676 54.9939 48.029 54.9939 45.2676V10.2676C54.9939 4.75258 59.4756 0.267578 64.9865 0.267578H94.9641C97.7234 0.267578 99.9603 2.50615 99.9603 5.26758V45.2676Z" fill="#494A69"/>
</svg>
