<svg width="48" height="49" viewBox="0 0 48 49" fill="none" xmlns="http://www.w3.org/2000/svg">
<circle cx="24" cy="24.2676" r="24" fill="#EF6D58"/>
<path d="M32 19.8076C31.412 20.0689 30.7787 20.2449 30.1147 20.3249C30.7933 19.9182 31.312 19.2756 31.5587 18.5089C30.924 18.8849 30.2213 19.1582 29.4733 19.3049C28.876 18.6662 28.0213 18.2676 27.0787 18.2676C24.9587 18.2676 23.4013 20.2449 23.88 22.2982C21.1533 22.1609 18.7333 20.8542 17.1147 18.8689C16.2547 20.3436 16.6693 22.2742 18.1307 23.2516C17.5933 23.2342 17.088 23.0862 16.6453 22.8409C16.6093 24.3609 17.7 25.7836 19.2787 26.1009C18.8173 26.2262 18.3107 26.2556 17.796 26.1569C18.2133 27.4609 19.428 28.4089 20.8627 28.4356C19.48 29.5182 17.7427 30.0022 16 29.7969C17.4533 30.7289 19.1773 31.2716 21.0307 31.2716C27.1267 31.2716 30.5693 26.1236 30.3613 21.5062C31.004 21.0449 31.56 20.4662 32 19.8076Z" fill="#FFFAFB"/>
</svg>
